<?xml version="1.0" standalone="no"?>
<!DOCTYPE svg PUBLIC "-//W3C//DTD SVG 20010904//EN"
 "http://www.w3.org/TR/2001/REC-SVG-20010904/DTD/svg10.dtd">
<svg version="1.0" xmlns="http://www.w3.org/2000/svg"
 width="873.000000pt" height="599.000000pt" viewBox="0 0 873.000000 599.000000"
 preserveAspectRatio="xMidYMid meet">
<metadata>
Created by potrace 1.15, written by Peter Selinger 2001-2017
</metadata>
<g transform="translate(0.000000,599.000000) scale(0.100000,-0.100000)"
fill="#000000" stroke="none">
<path d="M1730 5774 c-318 -56 -515 -116 -720 -219 -64 -32 -70 -38 -75 -72
-18 -114 -29 -171 -37 -192 -5 -13 -7 -26 -4 -28 2 -2 27 10 57 27 177 105
389 191 577 236 201 48 302 58 552 58 202 1 253 -3 363 -22 390 -70 712 -208
1027 -440 45 -34 447 -427 1020 -999 l945 -943 588 588 588 588 -55 23 c-30
12 -69 37 -88 56 l-33 33 -500 -499 -500 -499 -775 776 c-983 984 -954 956
-1068 1042 -290 218 -653 384 -1009 459 -124 26 -139 27 -478 29 -192 1 -361
0 -375 -2z"/>
<path d="M7797 5400 l-97 -100 0 -2120 0 -2120 -285 0 -285 0 0 1485 c0 817
-2 1485 -5 1485 -3 0 -382 -375 -841 -832 -460 -458 -840 -835 -845 -836 -5
-2 -202 191 -437 429 -307 310 -432 430 -442 424 -9 -5 -11 -4 -6 4 5 7 -17
36 -56 74 -35 35 -339 340 -677 680 -338 339 -616 615 -618 613 -3 -3 -39 24
-80 59 -211 176 -498 300 -791 341 -157 22 -443 14 -587 -15 -411 -85 -759
-310 -1019 -659 -196 -262 -298 -562 -313 -917 -15 -370 77 -711 270 -1002
255 -383 638 -636 1092 -721 130 -24 494 -23 622 1 436 83 780 301 1052 667
l93 125 -520 3 -520 2 -204 213 c-292 304 -338 353 -338 360 0 4 228 8 506 9
l505 3 -65 73 c-36 40 -73 86 -81 102 l-16 30 -550 0 -551 0 -34 -34 c-45 -45
-46 -94 -4 -157 43 -65 212 -251 493 -546 l251 -263 349 0 348 0 -63 -56
c-182 -160 -403 -268 -657 -321 -105 -21 -153 -26 -291 -26 -188 -1 -285 11
-437 54 -215 60 -419 178 -587 339 -248 238 -382 486 -437 811 -18 107 -21
150 -16 314 7 252 39 395 132 590 138 289 415 564 699 695 168 78 308 114 509
131 300 26 610 -40 852 -183 178 -104 233 -155 973 -892 342 -341 622 -617
622 -612 0 5 7 3 15 -4 8 -7 13 -16 10 -20 -3 -4 221 -235 498 -514 l502 -506
739 735 c406 404 740 735 742 735 2 0 4 -603 4 -1340 l0 -1340 493 2 492 3 3
2323 c1 1277 -2 2322 -6 2322 -5 0 -52 -45 -105 -100z"/>
<path d="M4170 2448 c0 -20 -127 -270 -177 -348 -152 -239 -412 -498 -667
-667 -211 -140 -427 -236 -671 -299 -187 -48 -298 -64 -490 -71 -469 -16 -901
98 -1263 333 -45 30 -84 54 -86 54 -2 0 -6 -29 -8 -65 -4 -40 -14 -78 -27
-100 -12 -20 -19 -40 -16 -45 8 -12 131 -83 240 -138 239 -120 408 -172 701
-218 144 -23 200 -27 379 -27 311 0 550 42 848 147 551 194 1085 662 1340
1173 l61 123 -75 79 c-75 80 -89 90 -89 69z"/>
</g>
</svg>
